<?xml version="1.0" encoding="utf-8"?><svg xmlns="http://www.w3.org/2000/svg" xmlns:xlink="http://www.w3.org/1999/xlink"><symbol viewBox="0 0 10 20" id="facebook" xmlns="http://www.w3.org/2000/svg"><path fill-rule="evenodd" clip-rule="evenodd" d="M6.654 19.173H2.563V9.679H.518V6.406h2.045V4.442c0-2.67 1.155-4.258 4.433-4.258h2.73v3.273H8.02c-1.278 0-1.362.458-1.362 1.312l-.005 1.637h3.092l-.362 3.273h-2.73v9.494z"/></symbol><symbol viewBox="0 0 31 31" id="steam-icon" xmlns="http://www.w3.org/2000/svg"><path fill-rule="evenodd" clip-rule="evenodd" d="M15.775 30.509c8.319 0 15.062-6.716 15.062-15 0-8.284-6.743-15-15.062-15-8.32 0-15.063 6.716-15.063 15 0 1.528.23 3.003.656 4.392.108.02.284.064.54.139l-.4-6.273c0-.115.195-.17.374-.221.097-.028.19-.054.244-.088.145-.092 3.137.996 3.296 1.068l3.826 1.724a4.932 4.932 0 0 1 3.332-.703l3.477-4.222c.043-3.37 2.803-6.084 6.198-6.089 3.172.034 5.801 2.44 6.102 5.574.32 3.389-2.18 6.393-5.589 6.715l-5.791 4.116a5.121 5.121 0 0 1-3.405 3.87c-2.687.905-5.607-.53-6.513-3.206l-2.014-.664c-.15-.048-2.891-1.183-3.634-1.6a15.063 15.063 0 0 0 14.364 10.468zm9.58-19.112a3.09 3.09 0 0 1-3.1 3.081 3.09 3.09 0 0 1-3.099-3.08 3.09 3.09 0 0 1 3.1-3.081 3.09 3.09 0 0 1 3.099 3.08zm-1.031 0a2.062 2.062 0 0 1-2.068 2.056 2.062 2.062 0 0 1-2.068-2.056c0-1.135.926-2.055 2.068-2.055s2.068.92 2.068 2.055zM10.58 23.412c.417.202.877.308 1.342.308.353 0 .697-.058 1.036-.168a3.074 3.074 0 0 0 .33-5.685.518.518 0 0 0-.693.236.512.512 0 0 0 .237.688 2.045 2.045 0 0 1 .988 2.816 2.07 2.07 0 0 1-2.784.88.518.518 0 0 0-.693.237.512.512 0 0 0 .237.688z"/></symbol><symbol viewBox="0 0 20 19" id="twitch" xmlns="http://www.w3.org/2000/svg"><path fill-rule="evenodd" clip-rule="evenodd" d="M19.96 13.625V.68H2.94L.81 2.977v12.11h5.32v3.758h2.34l2.553-2.714h6.383l2.553-2.506zm-12.553-.209H4.003A.423.423 0 0 1 3.577 13V2.769c0-.23.192-.418.426-.418H17.62c.234 0 .425.188.425.417v7.934a.41.41 0 0 1-.122.298l-2.34 2.296a.435.435 0 0 1-.304.12h-3.91L8.073 15.64a.43.43 0 0 1-.436.026.412.412 0 0 1-.23-.37v-1.88z"/><path d="M13.79 9.763V5.587h-1.702v4.176h1.702zm-4.255 0V5.587H7.833v4.176h1.702z"/></symbol><symbol viewBox="0 0 19 15" id="twitter" xmlns="http://www.w3.org/2000/svg"><path d="M18.066 2.294a7.671 7.671 0 0 1-2.124.556A3.581 3.581 0 0 0 17.567.894a7.617 7.617 0 0 1-2.348.858 3.771 3.771 0 0 0-2.7-1.116c-2.04 0-3.697 1.582-3.697 3.534 0 .277.032.547.096.805-3.074-.147-5.798-1.553-7.622-3.692a3.395 3.395 0 0 0-.5 1.777c0 1.225.652 2.307 1.644 2.941a3.805 3.805 0 0 1-1.675-.442v.045c0 1.712 1.275 3.14 2.966 3.465a3.886 3.886 0 0 1-1.67.06c.47 1.405 1.837 2.427 3.454 2.456a7.65 7.65 0 0 1-4.592 1.512 8.04 8.04 0 0 1-.882-.049 10.827 10.827 0 0 0 5.669 1.588c6.802 0 10.52-5.386 10.52-10.056 0-.153 0-.306-.01-.458a7.368 7.368 0 0 0 1.845-1.828h.001z"/></symbol><symbol viewBox="0 0 31 31" id="xbox-icon" xmlns="http://www.w3.org/2000/svg"><path d="M10.551 3.158a22.246 22.246 0 0 1 4.56 2.444c.164.112.351.17.54.17a.964.964 0 0 0 .539-.17 22.27 22.27 0 0 1 4.56-2.45.935.935 0 0 0 .592-.879.925.925 0 0 0-.605-.867C17.57.205 13.732.205 10.57 1.406a.944.944 0 0 0-.018 1.752z"/><path d="M24.159 3.164a.94.94 0 0 0-1.004-.041 40.987 40.987 0 0 0-5.052 3.434.942.942 0 0 0-.064 1.412c3.32 3.16 7.921 12.847 8.977 17.3-2.288-3.867-7.393-12.969-10.731-16.08a.942.942 0 0 0-1.28 0C11.661 12.3 6.574 21.406 4.285 25.28c1.057-4.453 5.645-14.152 8.966-17.31a.933.933 0 0 0-.059-1.412A41.445 41.445 0 0 0 8.14 3.123a.941.941 0 0 0-1.003.04A14.992 14.992 0 0 0 .624 15.507a14.85 14.85 0 0 0 3.661 9.775 14.897 14.897 0 0 0 11.36 5.228c4.395 0 8.537-1.905 11.371-5.233a14.849 14.849 0 0 0 3.65-9.77 15 15 0 0 0-6.507-12.342z"/></symbol><symbol viewBox="0 0 26 19" id="youtube" xmlns="http://www.w3.org/2000/svg"><path d="M20.61.184H5.99C3.126.184.8 2.55.8 5.464v7.433c0 2.92 2.326 5.281 5.19 5.281h14.615c2.868 0 5.19-2.367 5.19-5.28V5.463C25.8 2.551 23.472.184 20.61.184zm-3.514 9.364l-6.838 3.316a.272.272 0 0 1-.39-.254V5.768c0-.21.216-.342.395-.248L17.1 9.046a.281.281 0 0 1-.005.502z"/></symbol></svg>